<?xml version="1.0" encoding="UTF-8"?>
<svg width="2633px" height="2074px" viewBox="0 0 2633 2074" version="1.1" xmlns="http://www.w3.org/2000/svg" xmlns:xlink="http://www.w3.org/1999/xlink" style="background: #FFFFFF;">
    <!-- Generator: Sketch 48.2 (47327) - http://www.bohemiancoding.com/sketch -->
    <title>Profile-2 Copy 23</title>
    <desc>Created with Sketch.</desc>
    <defs>
        <linearGradient x1="3.061617e-15%" y1="50%" x2="100%" y2="50%" id="linearGradient-1">
            <stop stop-color="#D4CBFF" offset="0%"></stop>
            <stop stop-color="#DBEAFD" offset="100%"></stop>
        </linearGradient>
        <linearGradient x1="3.061617e-15%" y1="50%" x2="100%" y2="50%" id="linearGradient-2">
            <stop stop-color="#D4CBFF" offset="0%"></stop>
            <stop stop-color="#A4BCFF" offset="100%"></stop>
        </linearGradient>
    </defs>
    <g id="Page-1" stroke="none" stroke-width="1" fill="none" fill-rule="evenodd">
        <g id="Profile-2-Copy-23">
            <g id="Group" transform="translate(1103.000000, 719.000000)">
                <path d="M344.68862,220.614679 L81.3087153,220.614679 C36.4051772,220.614679 0,184.195908 0,139.27027 C0,94.3472982 36.4051772,57.9311927 81.3087153,57.9311927 L344.68862,57.9311927 C389.594823,57.9311927 426,94.3472982 426,139.27027 C426,184.195908 389.594823,220.614679 344.68862,220.614679" id="Fill-1-Copy-2" fill="url(#linearGradient-1)" opacity="0.848675272"></path>
                <polyline id="Stroke-4-Copy-2" stroke="#3D3D6E" stroke-width="15.9667199" stroke-linecap="round" stroke-linejoin="round" points="244.570204 346 173.845867 346 254.511664 315.262315 163.907063 315.262315 266.052045 284.100917"></polyline>
                <path d="M276.577533,274.20908 C280.863789,249.081755 302.798553,222.549432 312.740323,211.592052 C317.418177,206.438618 321.693778,200.930601 325.207495,194.921371 C336.822211,175.064786 343.306206,151.833007 342.834691,127.052265 C341.545351,58.9005604 286.50332,2.68200223 218.440019,0.0959538857 C144.643951,-2.70870886 83.9330855,56.3331743 83.9330855,129.566331 C83.9330855,152.934077 90.1160569,174.856835 100.928931,193.788309 C104.70105,200.389397 109.381567,206.414623 114.472329,212.058607 C124.600574,223.285256 145.989233,249.431005 150.21422,274.20908 C151.029381,278.973275 155.035925,282.513761 159.862958,282.513761 L266.928794,282.513761 C271.755827,282.513761 275.762371,278.973275 276.577533,274.20908 Z" id="Stroke-6-Copy-2" stroke="#3D3D6E" stroke-width="15.9667199" stroke-linecap="round" stroke-linejoin="round"></path>
                <path d="M215.375465,282.513761 L215.375465,169.825688" id="Stroke-8-Copy-2" stroke="#3D3D6E" stroke-width="15.9667199" stroke-linecap="round" stroke-linejoin="round"></path>
                <path d="M186.078067,135.303718 C186.078067,119.308049 199.017964,106.33945 214.978229,106.33945 C230.943794,106.33945 243.881041,119.308049 243.881041,135.303718 C243.881041,151.299387 230.943794,164.270642 214.978229,164.270642 C199.017964,164.270642 186.078067,151.299387 186.078067,135.303718 Z" id="Stroke-10-Copy-2" stroke="#3D3D6E" stroke-width="15.9667199" stroke-linecap="round" stroke-linejoin="round"></path>
            </g>
            <path d="M486.672,1326.784 C439.344,1326.784 404.08,1289.896 404.08,1243.264 L404.08,1242.8 C404.08,1196.632 438.648,1158.816 487.832,1158.816 C512.888,1158.816 529.36,1166.24 543.512,1177.144 C546.528,1179.464 549.08,1183.408 549.08,1188.512 C549.08,1196.4 542.816,1202.432 534.928,1202.432 C530.984,1202.432 528.2,1201.04 526.344,1199.648 C515.208,1190.6 503.144,1185.032 487.6,1185.032 C456.744,1185.032 434.008,1210.552 434.008,1242.336 L434.008,1242.8 C434.008,1274.584 456.512,1300.336 487.6,1300.336 C504.768,1300.336 516.368,1294.768 528.2,1284.792 C530.288,1282.936 533.304,1281.544 536.784,1281.544 C543.976,1281.544 550.24,1287.576 550.24,1294.768 C550.24,1299.176 548.152,1302.656 545.6,1304.976 C530.288,1318.432 512.888,1326.784 486.672,1326.784 Z M579.24,1311.24 L579.24,1214.264 C579.24,1206.376 585.272,1200.112 593.16,1200.112 C601.048,1200.112 607.312,1206.376 607.312,1214.264 L607.312,1226.792 C613.808,1211.48 625.872,1199.88 638.168,1199.88 C646.984,1199.88 652.088,1205.68 652.088,1213.8 C652.088,1221.224 647.216,1226.096 640.952,1227.256 C621,1230.736 607.312,1246.048 607.312,1275.048 L607.312,1311.24 C607.312,1318.896 601.048,1325.16 593.16,1325.16 C585.504,1325.16 579.24,1319.128 579.24,1311.24 Z M783.864,1214.264 L783.864,1311.24 C783.864,1318.896 777.6,1325.16 769.712,1325.16 C762.056,1325.16 755.56,1319.128 755.56,1311.24 L755.56,1304.976 C747.672,1316.576 736.304,1326.552 717.28,1326.552 C689.672,1326.552 673.664,1307.992 673.664,1279.456 L673.664,1214.264 C673.664,1206.376 679.928,1200.112 687.584,1200.112 C695.472,1200.112 701.736,1206.376 701.736,1214.264 L701.736,1271.104 C701.736,1290.128 711.248,1300.8 727.952,1300.8 C744.192,1300.8 755.56,1289.664 755.56,1270.64 L755.56,1214.264 C755.56,1206.376 761.824,1200.112 769.712,1200.112 C777.368,1200.112 783.864,1206.376 783.864,1214.264 Z M826.32,1324 C818.432,1324 812.632,1319.128 812.632,1312.632 L812.632,1312.168 C812.632,1306.832 814.488,1303.352 818.896,1298.712 L884.088,1224.472 L826.32,1224.472 C819.824,1224.472 814.72,1219.368 814.72,1213.104 C814.72,1206.608 819.824,1201.504 826.32,1201.504 L907.056,1201.504 C914.712,1201.504 920.512,1206.144 920.512,1212.64 L920.512,1213.336 C920.512,1218.672 918.656,1222.152 914.48,1226.792 L849.056,1301.032 L909.376,1301.032 C915.872,1301.032 920.976,1306.136 920.976,1312.632 C920.976,1318.896 915.872,1324 909.376,1324 L826.32,1324 Z M952.064,1311.008 L952.064,1174.592 C952.064,1166.704 958.328,1160.44 966.448,1160.44 C974.336,1160.44 980.6,1166.704 980.6,1174.592 L980.6,1229.112 L1058.088,1229.112 L1058.088,1174.592 C1058.088,1166.704 1064.352,1160.44 1072.24,1160.44 C1080.36,1160.44 1086.624,1166.704 1086.624,1174.592 L1086.624,1311.008 C1086.624,1318.896 1080.36,1325.16 1072.24,1325.16 C1064.352,1325.16 1058.088,1318.896 1058.088,1311.008 L1058.088,1255.56 L980.6,1255.56 L980.6,1311.008 C980.6,1318.896 974.336,1325.16 966.448,1325.16 C958.328,1325.16 952.064,1318.896 952.064,1311.008 Z M1160.4,1326.552 C1137.432,1326.552 1117.016,1313.328 1117.016,1288.736 L1117.016,1288.272 C1117.016,1261.824 1137.664,1248.832 1167.592,1248.832 C1181.28,1248.832 1191.024,1250.92 1200.536,1253.936 L1200.536,1250.92 C1200.536,1233.52 1189.864,1224.24 1170.144,1224.24 C1159.472,1224.24 1150.656,1226.096 1143,1229.112 C1141.376,1229.576 1139.984,1229.808 1138.592,1229.808 C1132.096,1229.808 1126.76,1224.704 1126.76,1218.208 C1126.76,1213.104 1130.24,1208.696 1134.416,1207.072 C1146.016,1202.664 1157.848,1199.88 1173.856,1199.88 C1192.184,1199.88 1205.872,1204.752 1214.456,1213.568 C1223.504,1222.384 1227.68,1235.376 1227.68,1251.384 L1227.68,1311.704 C1227.68,1319.36 1221.648,1325.16 1213.992,1325.16 C1205.872,1325.16 1200.304,1319.592 1200.304,1313.328 L1200.304,1308.688 C1191.952,1318.664 1179.192,1326.552 1160.4,1326.552 Z M1168.288,1306.136 C1186.848,1306.136 1201,1295.464 1201,1279.92 L1201,1271.568 C1193.808,1268.784 1184.296,1266.696 1173.16,1266.696 C1155.064,1266.696 1144.392,1274.352 1144.392,1287.112 L1144.392,1287.576 C1144.392,1299.408 1154.832,1306.136 1168.288,1306.136 Z M1317.928,1326.784 C1281.504,1326.784 1254.592,1298.248 1254.592,1263.448 L1254.592,1262.984 C1254.592,1228.184 1281.504,1198.952 1318.392,1198.952 C1337.648,1198.952 1350.872,1205.216 1361.312,1214.264 C1363.168,1215.888 1365.72,1219.368 1365.72,1224.008 C1365.72,1231.2 1359.92,1236.768 1352.728,1236.768 C1349.248,1236.768 1346.232,1235.376 1344.376,1233.984 C1337.184,1227.952 1329.296,1223.544 1318.16,1223.544 C1297.744,1223.544 1282.664,1241.176 1282.664,1262.52 L1282.664,1262.984 C1282.664,1284.792 1297.744,1302.192 1319.32,1302.192 C1330.456,1302.192 1339.04,1297.784 1346.696,1291.288 C1348.32,1289.896 1351.104,1288.272 1354.352,1288.272 C1361.08,1288.272 1366.416,1293.84 1366.416,1300.568 C1366.416,1304.28 1365.024,1307.296 1362.472,1309.384 C1351.568,1319.824 1338.344,1326.784 1317.928,1326.784 Z M1393.792,1311.24 L1393.792,1167.4 C1393.792,1159.744 1399.824,1153.48 1407.712,1153.48 C1415.6,1153.48 1421.864,1159.744 1421.864,1167.4 L1421.864,1257.88 L1474.528,1206.144 C1478.24,1202.432 1481.72,1200.112 1486.592,1200.112 C1494.016,1200.112 1498.888,1206.144 1498.888,1212.872 C1498.888,1217.512 1496.568,1220.992 1492.624,1224.704 L1460.144,1254.632 L1497.264,1303.12 C1499.816,1306.6 1500.976,1309.152 1500.976,1312.4 C1500.976,1320.056 1494.944,1325.16 1487.752,1325.16 C1482.184,1325.16 1478.936,1323.304 1475.456,1318.896 L1440.424,1272.264 L1421.864,1289.896 L1421.864,1311.24 C1421.864,1319.128 1415.6,1325.16 1407.712,1325.16 C1400.056,1325.16 1393.792,1319.128 1393.792,1311.24 Z M1570.344,1326.32 C1554.8,1326.32 1537.864,1321.448 1523.712,1311.704 C1520.696,1310.08 1518.376,1306.6 1518.376,1301.96 C1518.376,1295.696 1523.248,1290.592 1529.744,1290.592 C1532.064,1290.592 1534.152,1291.288 1535.776,1292.216 C1547.608,1300.104 1559.904,1304.048 1571.04,1304.048 C1583.104,1304.048 1590.064,1298.944 1590.064,1290.824 L1590.064,1290.36 C1590.064,1280.848 1577.072,1277.6 1562.688,1273.192 C1544.592,1268.088 1524.408,1260.664 1524.408,1237.232 L1524.408,1236.768 C1524.408,1213.568 1543.664,1199.416 1568.024,1199.416 C1581.016,1199.416 1594.704,1203.128 1606.536,1209.392 C1610.48,1211.48 1613.264,1215.192 1613.264,1220.064 C1613.264,1226.56 1608.16,1231.432 1601.664,1231.432 C1599.344,1231.432 1597.952,1230.968 1596.096,1230.04 C1586.12,1224.936 1575.912,1221.688 1567.328,1221.688 C1556.424,1221.688 1550.16,1226.792 1550.16,1233.752 L1550.16,1234.216 C1550.16,1243.264 1563.384,1246.976 1577.768,1251.616 C1595.632,1257.184 1615.816,1265.304 1615.816,1287.344 L1615.816,1287.808 C1615.816,1313.56 1595.864,1326.32 1570.344,1326.32 Z M1706.528,1310.544 C1706.528,1304.976 1709.08,1300.336 1713.952,1296.392 L1763.832,1253.936 C1786.104,1235.144 1794.224,1224.704 1794.224,1210.088 C1794.224,1194.08 1782.856,1184.8 1768.008,1184.8 C1755.016,1184.8 1745.968,1190.832 1735.992,1202.896 C1733.904,1205.216 1730.656,1207.304 1726.016,1207.304 C1718.824,1207.304 1713.024,1201.504 1713.024,1194.312 C1713.024,1191.296 1714.184,1188.048 1716.272,1185.496 C1729.496,1169.024 1744.576,1159.28 1770.096,1159.28 C1801.88,1159.28 1823.688,1178.768 1823.688,1207.768 L1823.688,1208.232 C1823.688,1233.752 1810.232,1247.672 1781.464,1271.104 L1748.056,1298.944 L1813.944,1298.944 C1820.904,1298.944 1826.472,1304.512 1826.472,1311.472 C1826.472,1318.432 1820.904,1324 1813.944,1324 L1721.84,1324 C1713.024,1324 1706.528,1318.896 1706.528,1310.544 Z M1922.52,1326.784 C1879.832,1326.784 1851.992,1289.664 1851.992,1243.264 L1851.992,1242.8 C1851.992,1196.4 1880.296,1158.816 1922.984,1158.816 C1965.44,1158.816 1993.512,1195.936 1993.512,1242.336 L1993.512,1242.8 C1993.512,1289.2 1965.208,1326.784 1922.52,1326.784 Z M1922.984,1301.032 C1948.272,1301.032 1964.048,1275.048 1964.048,1243.264 L1964.048,1242.8 C1964.048,1210.784 1947.576,1184.568 1922.52,1184.568 C1897.464,1184.568 1881.456,1210.088 1881.456,1242.336 L1881.456,1242.8 C1881.456,1274.816 1897.696,1301.032 1922.984,1301.032 Z M2046.872,1311.008 L2046.872,1188.512 L2030.168,1193.616 C2028.544,1194.08 2026.456,1194.312 2025.064,1194.312 C2018.336,1194.312 2012.536,1188.744 2012.536,1182.248 C2012.536,1176.216 2016.248,1171.576 2022.048,1169.952 L2046.64,1162.064 C2052.208,1160.44 2056.384,1159.512 2060.56,1159.512 L2061.024,1159.512 C2069.144,1159.512 2075.176,1165.776 2075.176,1173.664 L2075.176,1311.008 C2075.176,1318.896 2068.912,1325.16 2061.024,1325.16 C2053.368,1325.16 2046.872,1318.896 2046.872,1311.008 Z M2170.528,1326.32 C2135.032,1326.32 2108.584,1307.76 2108.584,1279.688 L2108.584,1279.224 C2108.584,1259.736 2119.488,1247.44 2137.816,1239.784 C2124.128,1232.592 2114.152,1221.688 2114.152,1203.592 L2114.152,1203.128 C2114.152,1178.304 2138.048,1159.28 2170.528,1159.28 C2203.008,1159.28 2226.904,1178.072 2226.904,1203.128 L2226.904,1203.592 C2226.904,1221.688 2216.928,1232.592 2203.24,1239.784 C2221.104,1247.904 2232.472,1259.504 2232.472,1278.76 L2232.472,1279.224 C2232.472,1308.224 2206.024,1326.32 2170.528,1326.32 Z M2170.528,1230.272 C2187.232,1230.272 2199.528,1220.296 2199.528,1206.376 L2199.528,1205.912 C2199.528,1193.384 2187.928,1183.176 2170.528,1183.176 C2153.128,1183.176 2141.528,1193.384 2141.528,1205.68 L2141.528,1206.144 C2141.528,1220.296 2153.824,1230.272 2170.528,1230.272 Z M2170.528,1302.424 C2191.872,1302.424 2204.632,1291.52 2204.632,1278.064 L2204.632,1277.6 C2204.632,1262.752 2189.784,1253.008 2170.528,1253.008 C2151.272,1253.008 2136.656,1262.752 2136.656,1277.6 L2136.656,1278.064 C2136.656,1291.288 2149.184,1302.424 2170.528,1302.424 Z" id="CruzHacks-2018" fill="#3D3D6E"></path>
            <rect id="Rectangle-25-Copy" stroke="url(#linearGradient-2)" stroke-width="147" x="73.5" y="73.5" width="2486" height="1927"></rect>
        </g>
    </g>
</svg>